# xmcd
#
# Track frame offsets: 
#        150
#        18084
#        38935
#        53082
#        72888
#        89138
#        105057
#        117823
#        130778
#        145141
#        159601
#        176735
#        194172
#        212879
#        230394
#        250165
#        273296
#        288974
#        307575
#        322641
#
# Disc length: 4550 seconds
#
# Revision: 0
# Processed by: cddbd v1.5.2PL0 Copyright (c) Steve Scherf et al.
# Submitted via: ExactAudioCopy v0.95b4
#
DISCID=0f11c414
DTITLE=Hasse Andersson - 25 år I Änglahundens Spår
DYEAR=2006
DGENRE=Svenskt
TTITLE0=Änglahund
TTITLE1=Måsen
TTITLE2=Nickolinas Snoa
TTITLE3=Amandas Sång
TTITLE4=Det Finns Ett Träd
TTITLE5=Frälsningssoldaten
TTITLE6=I Främmande Hav
TTITLE7=En Liten Elin
TTITLE8=Boots Och Nya Jeans
TTITLE9=Var E' Natten
TTITLE10=Tuppen Galjon
TTITLE11=Från Mitt Fönster
TTITLE12=Min Gamla Gitarr
TTITLE13=Tänker Du På Mig
TTITLE14=Hon Ville Ju Bli Älskad
TTITLE15=Sista Seglatsen
TTITLE16=Till Min Livskamrat
TTITLE17=Samling I Köket
TTITLE18=När Gässen Sträcker
TTITLE19=Åh Nej
EXTD=
EXTT0=
EXTT1=
EXTT2=
EXTT3=
EXTT4=
EXTT5=
EXTT6=
EXTT7=
EXTT8=
EXTT9=
EXTT10=
EXTT11=
EXTT12=
EXTT13=
EXTT14=
EXTT15=
EXTT16=
EXTT17=
EXTT18=
EXTT19=
PLAYORDER=
